<svg width="1366" height="548" viewBox="0 0 1366 548" fill="none" xmlns="http://www.w3.org/2000/svg">
<g style="mix-blend-mode:soft-light" filter="url(#filter0_d_232_900)">
<path d="M-330.89 312.069C-330.24 296.203 -327.879 280.353 -321.034 265.323C-308.975 238.844 -288.296 259.341 -264.556 270.689C-254.234 275.623 -242.362 283.197 -233.677 272.994C-223.457 260.988 -228.565 242.523 -221.956 229.251C-210.415 206.074 -182.933 179.385 -143.589 175.773C-104.837 172.216 -61.4908 186.283 -33.4814 204.777C-14.4315 217.356 3.01919 232.008 18.5733 247.793M18.5733 247.793C48.1925 277.853 70.9343 312.023 84.7449 343.816C107.739 396.749 135.359 527.465 -4.51089 501.74C-49.0679 493.546 -78.4196 472.164 -89.3838 442.34C-116.883 367.541 -63.1011 306.894 7.35797 255.788C11.0403 253.117 14.7786 250.45 18.5733 247.793ZM18.5733 247.793C77.7079 206.388 150.525 167.492 238.341 156.648C279.959 151.508 326.225 156.218 370.194 166.863M370.194 166.863C415.16 177.749 457.724 194.842 490.461 213.956C651.549 308.01 665.698 484.518 547.292 587.378C503.415 625.495 422.392 650.826 355.912 611.952C326.046 594.487 317.21 579.692 309.136 553.299C283.431 469.269 298.899 376.075 320.762 294.876C332.465 251.411 348.56 208.352 370.194 166.863ZM370.194 166.863C403.101 103.755 448.823 44.2793 511.395 -7.46954C535.668 -27.5433 582.779 -57.9326 614.688 -73.8129C651.813 -92.2898 701.389 -112.789 752.188 -108.2C790.509 -104.739 814.793 -92.9544 842.961 -74.7822C901.277 -37.1603 931.828 12.049 953.715 62.1753C968.227 95.4113 981.596 131.088 990.306 167.162M990.306 167.162C1001.54 213.686 1005.02 260.871 993.207 304.332C987.516 325.27 977.421 353.364 950.729 366.757C923.81 380.265 888.416 368.221 875.883 347.941C850.483 306.841 875.777 248.227 908.238 215.014C928.355 194.432 957.128 178.093 990.306 167.162ZM990.306 167.162C1017.98 158.046 1048.71 152.691 1080.04 151.775C1125.57 150.445 1177.41 153.27 1212.59 176.989C1219.42 181.59 1225.78 186.504 1231.68 191.669M1231.68 191.669C1257.66 214.446 1274.44 242.101 1280.71 269.273C1282.12 275.38 1294.19 307.54 1272.82 306.288C1235.74 304.116 1217.22 275.612 1211.78 254.985C1204.97 229.175 1213.41 207.709 1231.68 191.669ZM1231.68 191.669C1261.66 165.334 1318.12 153.63 1377.01 161.356C1418.92 166.854 1463.73 187.461 1468.46 217.225" stroke="#FBBB27" stroke-opacity="0.12" stroke-width="146" stroke-linejoin="round" shape-rendering="crispEdges"/>
</g>
<defs>
<filter id="filter0_d_232_900" x="-408.133" y="-181.543" width="1953.01" height="893.771" filterUnits="userSpaceOnUse" color-interpolation-filters="sRGB">
<feFlood flood-opacity="0" result="BackgroundImageFix"/>
<feColorMatrix in="SourceAlpha" type="matrix" values="0 0 0 0 0 0 0 0 0 0 0 0 0 0 0 0 0 0 127 0" result="hardAlpha"/>
<feOffset dy="4"/>
<feGaussianBlur stdDeviation="2"/>
<feComposite in2="hardAlpha" operator="out"/>
<feColorMatrix type="matrix" values="0 0 0 0 0 0 0 0 0 0 0 0 0 0 0 0 0 0 0.25 0"/>
<feBlend mode="normal" in2="BackgroundImageFix" result="effect1_dropShadow_232_900"/>
<feBlend mode="normal" in="SourceGraphic" in2="effect1_dropShadow_232_900" result="shape"/>
</filter>
</defs>
</svg>
