<svg width="1512" height="995" viewBox="0 0 1512 995" fill="none" xmlns="http://www.w3.org/2000/svg">
<path d="M-268.468 534.324C-267.807 513.677 -265.406 493.053 -258.446 473.495C-246.184 439.039 -225.157 465.712 -201.017 480.478C-190.521 486.898 -178.45 496.754 -169.619 483.478C-159.226 467.854 -164.42 443.827 -157.7 426.557C-145.965 396.398 -118.02 361.668 -78.0132 356.969C-38.6091 352.34 5.46709 370.644 33.9481 394.71C53.3187 411.078 71.0633 430.144 86.8793 450.684M86.8793 450.684C116.997 489.799 140.122 534.264 154.165 575.634C177.546 644.513 205.631 814.607 63.4064 781.133C18.0992 770.469 -11.7468 742.646 -22.8956 703.839C-50.8576 606.506 3.82962 527.589 75.4751 461.088C79.2194 457.613 83.0207 454.142 86.8793 450.684ZM86.8793 450.684C147.01 396.806 221.053 346.193 310.347 332.082C352.666 325.394 399.711 331.523 444.421 345.374M444.421 345.374C490.143 359.54 533.424 381.782 566.713 406.654C730.513 529.041 744.9 758.722 624.501 892.568C579.885 942.167 497.497 975.13 429.898 924.545C399.529 901.819 390.544 882.567 382.334 848.222C356.196 738.879 371.925 617.611 394.156 511.952C406.056 455.392 422.422 399.362 444.421 345.374ZM444.421 345.374C477.881 263.255 524.373 185.863 587.999 118.525C612.68 92.4038 660.585 52.8598 693.031 32.1956C730.781 8.15263 781.192 -18.5213 832.846 -12.5506C871.812 -8.0465 896.505 7.28775 925.147 30.9343C984.445 79.8897 1015.51 143.923 1037.77 209.15C1052.52 252.398 1066.12 298.822 1074.97 345.763M1074.97 345.763C1086.39 406.303 1089.93 467.702 1077.92 524.255C1072.14 551.501 1061.87 588.058 1034.73 605.486C1007.36 623.063 971.367 607.391 958.623 581.001C932.797 527.521 958.516 451.249 991.524 408.031C1011.98 381.249 1041.24 359.987 1074.97 345.763ZM1074.97 345.763C1103.11 333.901 1134.36 326.934 1166.22 325.742C1212.52 324.01 1265.23 327.686 1301 358.551C1307.94 364.538 1314.42 370.933 1320.41 377.654M1320.41 377.654C1346.83 407.292 1363.89 443.278 1370.27 478.635C1371.7 486.582 1383.97 528.43 1362.24 526.801C1324.54 523.975 1305.71 486.884 1300.18 460.042C1293.25 426.458 1301.84 398.525 1320.41 377.654ZM1320.41 377.654C1350.9 343.385 1408.31 328.155 1468.19 338.208C1510.8 345.363 1556.36 372.178 1561.18 410.907" stroke="#0C0E0D" stroke-width="155" stroke-linejoin="round"/>
</svg>
