<svg width="671" height="583" viewBox="0 0 671 583" fill="none" xmlns="http://www.w3.org/2000/svg">
<path d="M-245.754 288.272C-245.309 275.97 -243.694 263.682 -239.009 252.03C-230.756 231.502 -216.604 247.393 -200.358 256.19C-193.294 260.016 -185.169 265.888 -179.225 257.978C-172.231 248.669 -175.727 234.354 -171.204 224.064C-163.306 206.096 -144.498 185.404 -117.572 182.604C-91.0521 179.846 -61.3874 190.752 -42.2188 205.09C-29.1818 214.842 -17.2392 226.201 -6.59452 238.44M-6.59452 238.44C13.6757 261.744 29.2393 288.236 38.6908 312.884C54.4273 353.922 73.3289 455.264 -22.3925 435.32C-52.8856 428.967 -72.9729 412.39 -80.4764 389.268C-99.2957 331.278 -62.4895 284.259 -14.2699 244.638C-11.7499 242.567 -9.19148 240.499 -6.59452 238.44ZM-6.59452 238.44C33.8749 206.339 83.7082 176.184 143.806 167.776C172.288 163.792 203.951 167.443 234.042 175.696M234.042 175.696C264.814 184.136 293.944 197.388 316.348 212.207C426.591 285.124 436.273 421.968 355.241 501.713C325.213 531.264 269.764 550.903 224.267 520.764C203.828 507.224 197.781 495.754 192.256 475.292C174.664 410.145 185.25 337.894 200.212 274.942C208.221 241.244 219.236 207.862 234.042 175.696ZM234.042 175.696C256.562 126.77 287.852 80.6594 330.675 40.5395C347.286 24.9768 379.527 1.41654 401.364 -10.8951C426.771 -25.2199 460.699 -41.1122 495.464 -37.5548C521.689 -34.8713 538.308 -25.7352 557.586 -11.6466C597.495 17.5209 618.403 55.6719 633.382 94.5338C643.313 120.301 652.463 147.96 658.423 175.928M658.423 175.928C666.11 211.997 668.493 248.579 660.409 282.273C656.514 298.506 649.605 320.287 631.338 330.67C612.916 341.142 588.693 331.805 580.116 316.082C562.734 284.218 580.044 238.776 602.259 213.027C616.026 197.07 635.717 184.402 658.423 175.928ZM658.423 175.928C677.359 168.86 698.392 164.709 719.835 163.999C750.993 162.967 786.469 165.158 810.548 183.547C815.218 187.114 819.575 190.924 823.608 194.928M823.608 194.928C841.392 212.586 852.874 234.027 857.166 255.092C858.131 259.827 866.389 284.76 851.765 283.79C826.389 282.106 813.715 260.007 809.991 244.015C805.331 224.006 811.109 207.363 823.608 194.928ZM823.608 194.928C844.129 174.511 882.767 165.437 923.067 171.427C951.747 175.689 982.414 191.665 985.654 214.74" stroke="#1F1F1F" stroke-width="92.3486" stroke-linejoin="round"/>
</svg>
